HIERARCHY
ROOT Pelvis
{
	OFFSET 0.000000 0.000000 0.000000
	CHANNELS 6 Xposition Yposition Zposition Xrotation Yrotation Zrotation
	JOINT LeftUpLeg_virtual
	{
		OFFSET 0.000000 0.000000 0.000000
		CHANNELS 3 Xrotation Yrotation Zrotation
		JOINT LeftUpLeg
		{
			OFFSET 18.735201 -5.666702 -4.541200
			CHANNELS 3 Xrotation Yrotation Zrotation
			JOINT LeftLeg
			{
				OFFSET -0.021200 -31.938179 0.493100
				CHANNELS 3 Xrotation Yrotation Zrotation
				JOINT LeftFoot
				{
					OFFSET 0.021200 -31.938179 -4.336299
					CHANNELS 3 Xrotation Yrotation Zrotation
					JOINT LeftToeBase
					{
						OFFSET 0.943001 -26.722000 15.023500
						CHANNELS 3 Xrotation Yrotation Zrotation
						End Site
						{
							OFFSET 0 0 0
						}
					}
				}
			}
		}
	}
	JOINT RightUpLeg_virtual
	{
		OFFSET 0.000000 0.000000 0.000000
		CHANNELS 3 Xrotation Yrotation Zrotation
		JOINT RightUpLeg
		{
			OFFSET -18.735201 -5.666702 -4.541200
			CHANNELS 3 Xrotation Yrotation Zrotation
			JOINT RightLeg
			{
				OFFSET 0.018946 -31.938133 0.493100
				CHANNELS 3 Xrotation Yrotation Zrotation
				JOINT RightFoot
				{
					OFFSET -0.018946 -31.938126 -4.336299
					CHANNELS 3 Xrotation Yrotation Zrotation
					JOINT RightToeBase
					{
						OFFSET -0.943001 -26.722004 15.023500
						CHANNELS 3 Xrotation Yrotation Zrotation
						End Site
						{
							OFFSET 0 0 0
						}
					}
				}
			}
		}
	}
	JOINT Hips_virtual
	{
		OFFSET 0.000000 0.000000 0.000000
		CHANNELS 3 Xrotation Yrotation Zrotation
		JOINT Hips
		{
			OFFSET -0.000000 -0.000000 -0.000000
			CHANNELS 3 Xrotation Yrotation Zrotation
			JOINT Spine
			{
				OFFSET 0.000000 10.199997 -0.299500
				CHANNELS 3 Xrotation Yrotation Zrotation
				JOINT Spine1
				{
					OFFSET 0.000000 11.900002 -1.516600
					CHANNELS 3 Xrotation Yrotation Zrotation
					JOINT Spine2
					{
						OFFSET 0.000000 13.600006 -2.842500
						CHANNELS 3 Xrotation Yrotation Zrotation
						JOINT Neck_virtual
						{
							OFFSET 0.000000 0.000000 0.000000
							CHANNELS 3 Xrotation Yrotation Zrotation
							JOINT Neck
							{
								OFFSET 0.000000 9.624100 -2.890100
								CHANNELS 3 Xrotation Yrotation Zrotation
								JOINT Head
								{
									OFFSET 0.000000 14.068802 -1.351900
									CHANNELS 3 Xrotation Yrotation Zrotation
									End Site
									{
										OFFSET 0 0 0
									}
								}
							}
						}
						JOINT LeftShoulder_virtual
						{
							OFFSET 0.000000 0.000000 0.000000
							CHANNELS 3 Xrotation Yrotation Zrotation
							JOINT LeftShoulder
							{
								OFFSET 15.263000 10.923401 -0.547700
								CHANNELS 3 Xrotation Yrotation Zrotation
								JOINT LeftArm
								{
									OFFSET 25.438599 -2.830597 -13.032500
									CHANNELS 3 Xrotation Yrotation Zrotation
									JOINT LeftForeArm
									{
										OFFSET 29.960503 0.000000 0.000000
										CHANNELS 3 Xrotation Yrotation Zrotation
										JOINT LeftHand
										{
											OFFSET 27.849251 0.000000 0.000000
											CHANNELS 3 Xrotation Yrotation Zrotation
											End Site
											{
												OFFSET 0 0 0
											}
										}
									}
								}
							}
						}
						JOINT RightShoulder_virtual
						{
							OFFSET 0.000000 0.000000 0.000000
							CHANNELS 3 Xrotation Yrotation Zrotation
							JOINT RightShoulder
							{
								OFFSET -15.263000 10.923401 -0.547700
								CHANNELS 3 Xrotation Yrotation Zrotation
								JOINT RightArm
								{
									OFFSET -25.438599 -2.830597 -13.032500
									CHANNELS 3 Xrotation Yrotation Zrotation
									JOINT RightForeArm
									{
										OFFSET -29.960503 0.000000 0.000000
										CHANNELS 3 Xrotation Yrotation Zrotation
										JOINT RightHand
										{
											OFFSET -27.849251 0.000000 0.000000
											CHANNELS 3 Xrotation Yrotation Zrotation
											End Site
											{
												OFFSET 0 0 0
											}
										}
									}
								}
							}
						}
					}
				}
			}
		}
	}
}
MOTION
Frames: 4
Frame Time: 0.03333333
0.050598 95.043610 4.625143 0.000000 0.000000 0.000000 -3.374338 -5.597435 -2.834759 -14.534117 13.086287 12.619559 21.601761 2.391138 5.261468 -0.973679 2.417058 -10.669233 0.000000 0.000000 0.000000 -3.800655 -4.543530 -3.253956 4.569000 -9.510366 4.164478 7.437913 -8.327740 -2.688193 -7.332016 -2.167717 6.606918 0.000000 0.000000 0.000000 -3.751691 -5.190734 -2.791764 -0.565926 -0.115937 -0.840875 3.085920 2.252357 3.467553 0.885006 0.255502 1.654872 0.000000 0.000000 0.000000 0.429512 0.485032 1.295084 2.553213 -0.322242 0.245484 0.000000 0.000000 0.000000 -0.024876 0.634500 1.186759 0.332723 -18.052911 -12.303518 4.339629 -21.594700 -71.270101 0.980326 -7.726681 0.424829 0.000000 0.000000 0.000000 0.974414 0.593696 1.144361 1.651979 14.199436 13.719759 15.382809 28.923765 58.298410 1.009460 11.137633 0.247694 0.000000 0.000000 0.000000 
0.040694 95.052788 4.681471 0.000000 0.000000 0.000000 -3.373482 -5.648907 -2.815058 -14.426225 13.135771 12.588971 21.516194 2.450925 5.263526 -1.028204 2.485238 -10.649978 0.000000 0.000000 0.000000 -3.798178 -4.598825 -3.231459 4.550114 -9.504213 4.088789 7.560046 -8.204793 -2.673000 -7.432328 -2.213801 6.774962 0.000000 0.000000 0.000000 -3.745830 -5.243222 -2.782747 -0.574522 -0.119469 -0.831259 3.106303 2.237589 3.458721 0.884499 0.249957 1.655738 0.000000 0.000000 0.000000 0.438534 0.481278 1.294357 2.554801 -0.320552 0.242085 0.000000 0.000000 0.000000 -0.032163 0.626625 1.181389 0.338731 -18.074957 -12.300571 4.285700 -21.649891 -71.229543 0.984320 -7.830987 0.425573 0.000000 0.000000 0.000000 0.966075 0.588890 1.151378 1.640388 14.200721 13.753198 15.502141 28.832920 58.318559 1.008002 11.102632 0.258399 0.000000 0.000000 0.000000 
0.026293 95.063049 4.717821 0.000000 0.000000 0.000000 -3.402479 -5.771431 -2.826638 -14.286591 13.251110 12.584741 21.443965 2.611056 5.249065 -1.146149 2.585488 -10.582663 0.000000 0.000000 0.000000 -3.827932 -4.725580 -3.245111 4.470149 -9.454620 3.980231 7.772272 -7.922651 -2.670771 -7.374130 -2.298641 6.911362 0.000000 0.000000 0.000000 -3.768801 -5.368536 -2.801549 -0.588051 -0.113410 -0.831322 3.132089 2.206381 3.452991 0.887818 0.242599 1.658218 0.000000 0.000000 0.000000 0.455650 0.474777 1.294774 2.553165 -0.318163 0.239075 0.000000 0.000000 0.000000 -0.036079 0.617179 1.174611 0.353111 -18.088175 -12.270399 4.248283 -21.655350 -71.199634 0.993218 -7.912025 0.426564 0.000000 0.000000 0.000000 0.962508 0.582695 1.158623 1.622975 14.218346 13.803852 15.706660 28.820711 58.276520 1.000310 11.010079 0.280124 0.000000 0.000000 0.000000 
0.006225 95.071350 4.726004 0.000000 0.000000 0.000000 -3.462729 -5.968465 -2.862524 -14.155892 13.404646 12.613795 21.432661 2.861754 5.210146 -1.300292 2.701459 -10.479488 0.000000 0.000000 0.000000 -3.885650 -4.919819 -3.285366 4.373198 -9.353101 3.885060 8.004387 -7.504593 -2.717660 -7.240533 -2.461539 6.944191 0.000000 0.000000 0.000000 -3.818638 -5.566015 -2.837638 -0.611299 -0.107494 -0.823032 3.163289 2.165344 3.452433 0.893605 0.236166 1.664084 0.000000 0.000000 0.000000 0.473756 0.467449 1.297728 2.548086 -0.314948 0.236556 0.000000 0.000000 0.000000 -0.038514 0.608046 1.168393 0.373510 -18.076297 -12.220714 4.232765 -21.568679 -71.181609 1.006843 -7.957546 0.432270 0.000000 0.000000 0.000000 0.962834 0.577430 1.167276 1.606252 14.268842 13.846071 15.989174 28.917754 58.140148 0.982027 10.871659 0.311588 0.000000 0.000000 0.000000 
